<?xml version="1.0" encoding="UTF-8"?>
<svg width="98px" height="98px" viewBox="0 0 98 98" version="1.1" xmlns="http://www.w3.org/2000/svg" xmlns:xlink="http://www.w3.org/1999/xlink">
    <!-- Generator: Sketch 51.1 (57501) - http://www.bohemiancoding.com/sketch -->
    <title>facebook-logo</title>
    <desc>Created with Sketch.</desc>
    <defs></defs>
    <g id="facebook-logo" stroke="none" stroke-width="1" fill="none" fill-rule="evenodd">
        <g id="facebook-logo-(2)" transform="translate(2.000000, 2.000000)" fill="#000000" fill-rule="nonzero">
            <path d="M84.6,0 L9.4,0 C4.23,0 0,4.23 0,9.4 L0,84.6 C0,89.77 4.23,94 9.4,94 L84.6,94 C89.77,94 94,89.77 94,84.6 L94,9.4 C94,4.23 89.77,0 84.6,0 Z M79.9,9.4 L79.9,23.5 L70.5,23.5 C67.68,23.5 65.8,25.38 65.8,28.2 L65.8,37.6 L79.9,37.6 L79.9,51.7 L65.8,51.7 L65.8,84.6 L51.7,84.6 L51.7,51.7 L42.3,51.7 L42.3,37.6 L51.7,37.6 L51.7,25.85 C51.7,16.92 59.22,9.4 68.15,9.4 L79.9,9.4 Z" id="Shape"></path>
        </g>
    </g>
</svg>