<?xml version="1.0" encoding="utf-8"?>
<!-- Generator: Adobe Illustrator 22.1.0, SVG Export Plug-In . SVG Version: 6.00 Build 0)  -->
<svg version="1.1" id="Слой_1" xmlns="http://www.w3.org/2000/svg" xmlns:xlink="http://www.w3.org/1999/xlink" x="0px" y="0px"
	 viewBox="0 0 108 22" style="enable-background:new 0 0 108 22;" xml:space="preserve">
<style type="text/css">
	.st0{fill:#FFFFFF;}
</style>
<title>logo</title>
<desc>Created with Sketch.</desc>
<g>
	<path class="st0" d="M13.9,17.1h-2.8L7,11.3v5.8H4.6V5.7H7v5.5l4.1-5.5h2.6l-4.2,5.5L13.9,17.1z"/>
	<path class="st0" d="M26,11.4c0,1.9-0.5,3.3-1.4,4.4s-2.3,1.5-4,1.5s-3.1-0.5-4-1.5s-1.4-2.5-1.4-4.4S15.7,8,16.6,7s2.3-1.5,4-1.5
		c1.8,0,3.1,0.5,4,1.5S26,9.5,26,11.4z M17.7,11.4c0,1.3,0.2,2.2,0.7,2.9c0.5,0.6,1.2,1,2.2,1c1.9,0,2.9-1.3,2.9-3.9s-1-3.9-2.9-3.9
		c-1,0-1.7,0.3-2.2,1C17.9,9.1,17.7,10.1,17.7,11.4z"/>
	<path class="st0" d="M33.1,17.2v-1.8h-0.2c-1,0-1.8-0.2-2.5-0.5s-1.3-0.9-1.7-1.5C28.2,12.8,28,12,28,11.2s0.2-1.5,0.6-2.2
		c0.4-0.6,0.9-1.2,1.6-1.5s1.5-0.6,2.5-0.6h0.4V5.5h2.2v1.4h0.4c0.9,0,1.8,0.2,2.5,0.6s1.2,0.9,1.6,1.5s0.6,1.4,0.6,2.2
		s-0.2,1.6-0.6,2.3c-0.4,0.7-1,1.2-1.7,1.5s-1.6,0.5-2.5,0.5h-0.2v1.8L33.1,17.2L33.1,17.2z M33.1,8.8h-0.3C32,8.8,31.4,9,31,9.4
		c-0.4,0.4-0.7,1-0.7,1.7c0,0.8,0.2,1.3,0.7,1.8c0.5,0.4,1.1,0.7,2,0.7h0.1V8.8z M35.2,13.6L35.2,13.6c0.9,0,1.6-0.2,2.1-0.7
		c0.5-0.4,0.7-1,0.7-1.8c0-0.7-0.2-1.3-0.7-1.7c-0.4-0.4-1-0.6-1.8-0.6h-0.3V13.6z"/>
	<path class="st0" d="M49.4,17.1h-6.6V5.7h6.6v2h-4.2v2.5h3.9v2h-3.9v2.9h4.2V17.1z"/>
	<path class="st0" d="M56.5,17.1H54V7.7h-3.1v-2h8.6v2h-3.1L56.5,17.1L56.5,17.1z"/>
	<path class="st0" d="M69.5,9.2c0,1.2-0.4,2.2-1.2,2.8c-0.8,0.7-1.9,1-3.3,1h-1v4.1h-2.4V5.7h3.6c1.4,0,2.4,0.3,3.2,0.9
		C69.2,7.2,69.5,8,69.5,9.2z M64.1,11h0.8c0.7,0,1.3-0.1,1.7-0.4c0.4-0.3,0.6-0.7,0.6-1.3S67,8.3,66.7,8s-0.8-0.4-1.5-0.4h-1.1V11z"
		/>
	<path class="st0" d="M78.6,17.1H72V5.7h6.6v2h-4.2v2.5h3.9v2h-3.9v2.9h4.2V17.1z"/>
	<path class="st0" d="M81.3,5.7h2.2v5.5v1.5l-0.1,1.7l0,0l5.3-8.7h2.9v11.4h-2.2v-5.5c0-0.7,0-1.8,0.1-3.3h-0.1l-5.3,8.8h-2.9
		L81.3,5.7L81.3,5.7z M90.2,2c-0.1,1-0.5,1.7-1.1,2.1s-1.6,0.7-2.8,0.7c-1.2,0-2.1-0.2-2.7-0.6C83,3.7,82.7,3,82.6,2h2.1
		c0,0.5,0.2,0.9,0.4,1.1c0.2,0.2,0.6,0.3,1.2,0.3c0.5,0,0.9-0.1,1.2-0.4c0.4-0.2,0.5-0.5,0.6-1H90.2z"/>
	<path class="st0" d="M93.4,15.1h0.9c0.8-1.5,1.4-3,1.8-4.5s0.8-3.1,1-4.9h6.7v9.4h1.5v5.3H103v-3.3h-7.2v3.3h-2.3L93.4,15.1
		L93.4,15.1z M99,7.7c-0.2,1.2-0.4,2.5-0.8,3.8s-0.8,2.5-1.3,3.6h4.5V7.7H99z"/>
</g>
</svg>
