<?xml version="1.0" encoding="utf-8"?>
<!-- Generator: Adobe Illustrator 22.1.0, SVG Export Plug-In . SVG Version: 6.00 Build 0)  -->
<svg version="1.1" id="Слой_1" xmlns="http://www.w3.org/2000/svg" xmlns:xlink="http://www.w3.org/1999/xlink" x="0px" y="0px"
	 viewBox="0 0 108 22" style="enable-background:new 0 0 108 22;" xml:space="preserve">
<style type="text/css">
	.st0{enable-background:new    ;}
	.st1{fill:#333333;}
</style>
<title>logo</title>
<desc>Created with Sketch.</desc>
<g id="logo">
	<g class="st0">
		<path class="st1" d="M10.8,17H8l-4.1-5.8V17H1.4V5.6h2.4v5.5L8,5.6h2.6l-4.2,5.5L10.8,17z"/>
		<path class="st1" d="M23.5,11.3c0,1.9-0.5,3.3-1.4,4.4s-2.3,1.5-4,1.5s-3.1-0.5-4-1.5s-1.4-2.5-1.4-4.4s0.5-3.4,1.4-4.4
			c0.9-1,2.3-1.5,4-1.5c1.8,0,3.1,0.5,4,1.5S23.5,9.4,23.5,11.3z M15.2,11.3c0,1.3,0.2,2.2,0.7,2.9s1.2,1,2.2,1
			c1.9,0,2.9-1.3,2.9-3.9c0-2.6-1-3.9-2.9-3.9c-1,0-1.7,0.3-2.2,1C15.5,9,15.2,10,15.2,11.3z"/>
		<path class="st1" d="M31.3,17.2v-1.8h-0.2c-1,0-1.8-0.2-2.5-0.5c-0.7-0.3-1.3-0.9-1.7-1.5c-0.4-0.7-0.6-1.4-0.6-2.3
			c0-0.8,0.2-1.5,0.6-2.2c0.4-0.6,0.9-1.2,1.6-1.5s1.5-0.6,2.5-0.6h0.4V5.4h2.2v1.4h0.4c0.9,0,1.8,0.2,2.5,0.6s1.2,0.9,1.6,1.5
			s0.6,1.4,0.6,2.2c0,0.8-0.2,1.6-0.6,2.3c-0.4,0.7-1,1.2-1.7,1.5c-0.7,0.3-1.6,0.5-2.5,0.5h-0.2v1.8H31.3z M31.3,8.7h-0.3
			c-0.8,0-1.4,0.2-1.8,0.6c-0.4,0.4-0.7,1-0.7,1.7c0,0.8,0.2,1.3,0.7,1.8s1.1,0.7,2,0.7h0.1V8.7z M33.4,13.5h0.1
			c0.8,0,1.5-0.2,2-0.7s0.7-1,0.7-1.8c0-0.7-0.2-1.3-0.7-1.7c-0.4-0.4-1-0.6-1.8-0.6h-0.3V13.5z"/>
		<path class="st1" d="M48.2,17h-6.6V5.6h6.6v2h-4.2v2.5h3.9v2h-3.9V15h4.2V17z"/>
		<path class="st1" d="M56,17h-2.4V7.6h-3.1v-2h8.6v2H56V17z"/>
		<path class="st1" d="M69.8,9.1c0,1.2-0.4,2.2-1.2,2.8s-1.9,1-3.3,1h-1V17h-2.4V5.6h3.6c1.4,0,2.4,0.3,3.2,0.9S69.8,8,69.8,9.1z
			 M64.3,11h0.8c0.7,0,1.3-0.1,1.7-0.4s0.6-0.7,0.6-1.3c0-0.6-0.2-1-0.5-1.3s-0.8-0.4-1.5-0.4h-1.1V11z"/>
		<path class="st1" d="M79.5,17h-6.6V5.6h6.6v2h-4.2v2.5h3.9v2h-3.9V15h4.2V17z"/>
		<path class="st1" d="M82.9,5.6H85v5.5l0,1.5l-0.1,1.7h0l5.3-8.7h2.9V17H91v-5.5c0-0.7,0-1.8,0.1-3.3h-0.1L85.8,17h-2.9V5.6z
			 M91.8,1.9c-0.1,1-0.5,1.7-1.1,2.1s-1.6,0.7-2.8,0.7c-1.2,0-2.1-0.2-2.7-0.6s-0.9-1.1-1-2.2h2.1c0,0.5,0.2,0.9,0.4,1.1
			s0.6,0.3,1.2,0.3c0.5,0,0.9-0.1,1.2-0.4s0.4-0.6,0.5-1.1H91.8z"/>
	</g>
	<g class="st0">
		<path class="st1" d="M95.4,15h0.9c0.8-1.5,1.4-3,1.8-4.5s0.8-3.1,1-4.9h6.7V15h1.5v5.3h-2.3V17h-7.2v3.3h-2.3V15z M101,7.6
			c-0.2,1.2-0.4,2.5-0.8,3.8c-0.4,1.3-0.8,2.5-1.3,3.6h4.5V7.6H101z"/>
	</g>
</g>
</svg>
