<?xml version="1.0" encoding="UTF-8"?>
<svg width="98px" height="98px" viewBox="0 0 98 98" version="1.1" xmlns="http://www.w3.org/2000/svg" xmlns:xlink="http://www.w3.org/1999/xlink">
    <!-- Generator: Sketch 51.1 (57501) - http://www.bohemiancoding.com/sketch -->
    <title>odnoklassniki-logo</title>
    <desc>Created with Sketch.</desc>
    <defs></defs>
    <g id="odnoklassniki-logo" stroke="none" stroke-width="1" fill="none" fill-rule="evenodd">
        <g transform="translate(2.000000, 2.000000)" fill="#000000" fill-rule="nonzero" id="Shape">
            <path d="M47.051,37.59 C52.298,37.573 56.477,33.36 56.458,28.101 C56.437,22.842 52.251,18.653 47.002,18.649 C41.709,18.644 37.482,22.908 37.523,28.215 C37.562,33.454 41.788,37.612 47.051,37.59 Z"></path>
            <path d="M89,0 L5,0 C2.239,0 0,2.238 0,5 L0,89 C0,91.762 2.239,94 5,94 L89,94 C91.762,94 94,91.762 94,89 L94,5 C94,2.238 91.762,0 89,0 Z M47.08,8.766 C57.779,8.793 66.369,17.547 66.316,28.368 C66.259,38.938 57.529,47.506 46.847,47.47 C36.271,47.434 27.599,38.667 27.659,28.074 C27.722,17.365 36.4,8.734 47.08,8.766 Z M68.753,55.072 C66.387,57.503 63.539,59.259 60.375,60.488 C57.384,61.644 54.107,62.23 50.863,62.618 C51.353,63.152 51.584,63.411 51.888,63.72 C56.292,68.145 60.714,72.552 65.103,76.99 C66.597,78.501 66.913,80.376 66.088,82.135 C65.187,84.06 63.172,85.323 61.194,85.187 C59.942,85.099 58.966,84.476 58.1,83.605 C54.776,80.26 51.389,76.978 48.135,73.574 C47.188,72.582 46.732,72.767 45.894,73.63 C42.551,77.072 39.156,80.461 35.739,83.83 C34.204,85.344 32.379,85.615 30.596,84.752 C28.704,83.835 27.502,81.904 27.595,79.961 C27.659,78.649 28.305,77.647 29.206,76.747 C33.562,72.396 37.908,68.034 42.256,63.675 C42.545,63.387 42.813,63.078 43.232,62.63 C37.303,62.011 31.957,60.553 27.382,56.973 C26.815,56.528 26.228,56.098 25.708,55.6 C23.706,53.676 23.505,51.475 25.09,49.204 C26.444,47.262 28.722,46.74 31.087,47.855 C31.546,48.07 31.982,48.341 32.4,48.63 C40.928,54.49 52.645,54.653 61.206,48.896 C62.053,48.249 62.96,47.713 64.012,47.447 C66.057,46.922 67.959,47.671 69.057,49.459 C70.314,51.496 70.297,53.488 68.753,55.072 Z"></path>
        </g>
    </g>
</svg>