<?xml version="1.0" encoding="UTF-8"?>
<svg width="24px" height="24px" viewBox="0 0 24 24" version="1.1" xmlns="http://www.w3.org/2000/svg" xmlns:xlink="http://www.w3.org/1999/xlink">
    <!-- Generator: Sketch 51.1 (57501) - http://www.bohemiancoding.com/sketch -->
    <title>odnoklassniki-black</title>
    <desc>Created with Sketch.</desc>
    <defs></defs>
    <g id="odnoklassniki-black" stroke="none" stroke-width="1" fill="none" fill-rule="evenodd">
        <g id="odnoklassniki" transform="translate(6.000000, 2.000000)" fill="#333333" fill-rule="nonzero">
            <path d="M5.99998197,10 C8.76139154,10 11,7.7614276 11,4.99998197 C11,2.23853634 8.7614276,0 5.99998197,0 C3.23853634,0 1,2.2385724 1,5.00001803 C1.00338943,7.76002135 3.23997865,9.99661057 5.99998197,10 Z M5.99998197,2.30769508 C7.48689482,2.30769508 8.69230492,3.51306913 8.69230492,5.00001803 C8.69230492,6.48696693 7.48693087,7.69234098 5.99998197,7.69234098 C4.51303307,7.69234098 3.30765902,6.48696693 3.30765902,5.00001803 C3.30765902,3.51306913 4.51306913,2.30769508 5.99998197,2.30769508 Z" id="Shape"></path>
            <path d="M11.0934635,13.3244078 C11.6585764,12.9333399 11.9990691,12.2703054 11.9998566,11.5593624 C12.0077314,10.969333 11.6908257,10.4275271 11.186274,10.1683254 C10.6678851,9.89627993 10.0473484,9.95754434 9.58629583,10.3263522 C7.44947917,11.9630772 4.55127884,11.9630772 2.41446218,10.3263522 C1.95269709,9.95947486 1.33324788,9.89828925 0.814484006,10.1683254 C0.310157325,10.4274877 -0.00689837313,10.9687026 0.000113976439,11.5584957 C0.0013139507,12.2693204 0.341694149,12.932158 0.906507032,13.3235411 C1.63114149,13.8298491 2.42027456,14.2259993 3.25046925,14.5002511 C3.39127873,14.5461896 3.53658811,14.5887792 3.68647239,14.6280199 L1.26893676,17.1116909 C0.634750362,17.7581782 0.619413191,18.8223666 1.23473749,19.4887106 C1.85006179,20.1550153 2.86295256,20.1711292 3.49717646,19.5246419 C3.51037617,19.5111677 3.52335089,19.4974965 3.53610062,19.4835495 L6.00006026,16.8040293 L8.4688198,19.4885924 C9.08361911,20.1554093 10.0965474,20.1723505 10.7312213,19.5264148 C11.3658952,18.8804792 11.3820198,17.8162513 10.7672205,17.1494345 C10.7543583,17.1354875 10.7412711,17.1217769 10.7279588,17.1083027 L8.31439811,14.6271531 C8.4642449,14.5868093 8.61011677,14.5439439 8.75197623,14.498557 C9.58127094,14.2253689 10.369654,13.830046 11.0934635,13.3244078 Z" id="Shape"></path>
        </g>
    </g>
</svg>