<?xml version="1.0" encoding="UTF-8"?>
<svg width="24px" height="24px" viewBox="0 0 24 24" version="1.1" xmlns="http://www.w3.org/2000/svg" xmlns:xlink="http://www.w3.org/1999/xlink">
    <!-- Generator: Sketch 51.1 (57501) - http://www.bohemiancoding.com/sketch -->
    <title>odnoklassniki</title>
    <desc>Created with Sketch.</desc>
    <defs></defs>
    <g id="odnoklassniki" stroke="none" stroke-width="1" fill="none" fill-rule="evenodd">
        <g id="odnoklassniki-logo-(1)" transform="translate(6.000000, 2.000000)" fill="#FFFFFF">
            <g id="Shape">
                <path d="M4.974,14.01125 C3.44255172,13.8504167 2.06172414,13.470625 0.879517241,12.5395833 C0.732827586,12.42375 0.58137931,12.3120833 0.447517241,12.1827083 C-0.0699310345,11.6822917 -0.122068966,11.1091667 0.28737931,10.5185417 C0.637655172,10.013125 1.22565517,9.87791667 1.83682759,10.168125 C1.95517241,10.224375 2.06793103,10.2945833 2.17593103,10.37 C4.37917241,11.894375 7.40586207,11.9364583 9.61737931,10.4385417 C9.83648276,10.269375 10.0706897,10.1314583 10.3421379,10.0610417 C10.869931,9.92458333 11.3621379,10.1197917 11.6453793,10.5847917 C11.9689655,11.1158333 11.9648276,11.6341667 11.5661379,12.0464583 C10.9545517,12.6785417 10.2190345,13.1358333 9.4017931,13.455 C8.62903448,13.7566667 7.78262069,13.9085417 6.94489655,14.009375 C7.07131034,14.1479167 7.13089655,14.2160417 7.20993103,14.2960417 C8.34744828,15.446875 9.48993103,16.5929167 10.6237241,17.7472917 C11.01,18.140625 11.0906897,18.6283333 10.878,19.0858333 C10.6454483,19.5858333 10.1248966,19.9147917 9.61448276,19.8795833 C9.29110345,19.8570833 9.03889655,19.695 8.81482759,19.4677083 C7.95641379,18.5979167 7.08186207,17.7441667 6.24082759,16.8579167 C5.99606897,16.6002083 5.87834483,16.6489583 5.66234483,16.8727083 C4.79875862,17.7679167 3.92110345,18.649375 3.03827586,19.5258333 C2.64186207,19.919375 2.17013793,19.9902083 1.71041379,19.7654167 C1.22172414,19.526875 0.910758621,19.0245833 0.934758621,18.5197917 C0.951310345,18.1783333 1.11806897,17.9175 1.35082759,17.6835417 C2.47655172,16.5516667 3.59917241,15.416875 4.7222069,14.283125 C4.79648276,14.2077083 4.8657931,14.1277083 4.974,14.01125 Z" fill-rule="nonzero"></path>
                <path d="M5.90689655,10.0685417 C3.17482759,10.0591667 0.934551724,7.77854167 0.950482759,5.023125 C0.966206897,2.23729167 3.20793103,-0.00770833333 5.96689655,-3.38813179e-21 C8.73144828,0.0075 10.9504138,2.28479167 10.9365517,5.09958333 C10.9224828,7.849375 8.66668966,10.078125 5.90689655,10.0685417 Z M8.38986207,5.02979167 C8.38510345,3.66166667 7.30303448,2.5725 5.94703448,2.57125 C4.57965517,2.56979167 3.48786207,3.67875 3.49841379,5.059375 C3.50855172,6.42229167 4.59993103,7.50375 5.95965517,7.49875 C7.31524138,7.49395833 8.39441379,6.39770833 8.38986207,5.02979167 Z" fill-rule="nonzero"></path>
            </g>
        </g>
    </g>
</svg>