<?xml version="1.0" encoding="UTF-8"?>
<svg width="24px" height="24px" viewBox="0 0 24 24" version="1.1" xmlns="http://www.w3.org/2000/svg" xmlns:xlink="http://www.w3.org/1999/xlink">
    <!-- Generator: Sketch 51.1 (57501) - http://www.bohemiancoding.com/sketch -->
    <title>vk</title>
    <desc>Created with Sketch.</desc>
    <defs></defs>
    <g id="vk" stroke="none" stroke-width="1" fill="none" fill-rule="evenodd">
        <g transform="translate(2.000000, 6.000000)" fill="#FFFFFF" fill-rule="nonzero" id="Shape">
            <path d="M17.802,8.298 C17.802,8.298 19.419,9.895 19.819,10.634 C19.83,10.65 19.835,10.662 19.837,10.669 C20,10.942 20.04,11.156 19.96,11.314 C19.825,11.575 19.368,11.706 19.213,11.717 C19.213,11.717 16.435,11.717 16.355,11.717 C16.156,11.717 15.742,11.665 15.238,11.317 C14.853,11.048 14.47,10.605 14.099,10.172 C13.545,9.529 13.066,8.971 12.581,8.971 C12.519,8.971 12.459,8.981 12.401,9.001 C12.034,9.117 11.568,9.64 11.568,11.033 C11.568,11.469 11.224,11.717 10.983,11.717 C10.983,11.717 9.735,11.717 9.674,11.717 C9.228,11.717 6.906,11.561 4.847,9.39 C2.324,6.732 0.058,1.4 0.036,1.353 C-0.105,1.008 0.191,0.82 0.511,0.82 L3.397,0.82 C3.784,0.82 3.91,1.054 3.998,1.264 C4.1,1.505 4.478,2.469 5.098,3.552 C6.102,5.314 6.719,6.031 7.212,6.031 C7.305,6.031 7.393,6.008 7.476,5.961 C8.12,5.607 8,3.307 7.97,2.833 C7.97,2.741 7.969,1.806 7.639,1.354 C7.403,1.03 7.001,0.904 6.758,0.858 C6.823,0.764 6.961,0.62 7.138,0.535 C7.579,0.315 8.376,0.283 9.167,0.283 L9.606,0.283 C10.464,0.295 10.686,0.35 10.998,0.429 C11.626,0.579 11.638,0.986 11.583,2.372 C11.567,2.768 11.55,3.214 11.55,3.739 C11.55,3.851 11.545,3.976 11.545,4.103 C11.526,4.814 11.501,5.615 12.003,5.944 C12.067,5.984 12.142,6.006 12.22,6.006 C12.394,6.006 12.915,6.006 14.328,3.581 C14.948,2.51 15.428,1.247 15.461,1.152 C15.489,1.099 15.573,0.95 15.675,0.89 C15.753,0.842 15.857,0.834 15.911,0.834 L19.306,0.834 C19.676,0.834 19.927,0.89 19.976,1.03 C20.058,1.257 19.96,1.95 18.41,4.046 C18.149,4.395 17.92,4.697 17.719,4.961 C16.314,6.805 16.314,6.898 17.802,8.298 Z"></path>
        </g>
    </g>
</svg>